<svg width="64" height="64" viewBox="0 0 64 64" fill="none" xmlns="http://www.w3.org/2000/svg">
<path d="M54.5 19.1451V43.9711L33 31.5581L54.5 19.1451ZM54 18.2791L32.5 30.6921V5.86603L54 18.2791ZM10 18.2791L31.5 5.86603V30.6921L10 18.2791ZM9.5 19.1451L31 31.5581L9.5 43.9711V19.1451ZM31.5 57.2502L10 44.8372L31.5 32.4241V57.2502ZM32.5 32.4241L54 44.8372L32.5 57.2502V32.4241Z" fill="#F3C04B" stroke="white"/>
<path d="M18.7926 39.1937V24.5402L31.4829 31.8669L31.4829 46.5204L18.7926 39.1937ZM32.4829 46.5204L32.4829 31.8669L45.1732 24.5402V39.1937L32.4829 46.5204ZM19.2926 23.6742L31.9829 16.3474L44.6732 23.6742L31.9829 31.0009L19.2926 23.6742Z" fill="#FF9D00" stroke="white"/>
</svg>
