<svg width="625" height="721" viewBox="0 0 625 721" fill="none" xmlns="http://www.w3.org/2000/svg">
<path d="M390.404 315.15L312.202 270L234 315.15L312.202 360.3L390.404 315.15Z" fill="#FFEA29"/>
<path d="M312.404 270.15L234.202 225L156 270.15L234.202 315.3L312.404 270.15Z" fill="#FFE65F"/>
<path d="M234.404 225.15L156.202 180L78 225.15L156.202 270.3L234.404 225.15Z" fill="#FEDD2F"/>
<path d="M156.404 180.15L78.2019 135L0 180.15L78.2019 225.3L156.404 180.15Z" fill="#FFEA29"/>
<path d="M234.404 135.15L156.202 90L78 135.15L156.202 180.3L234.404 135.15Z" fill="#FFE55F"/>
<path d="M312.404 90.1499L234.202 45L156 90.1499L234.202 135.3L312.404 90.1499Z" fill="#FFE46B"/>
<path d="M390.404 45.1499L312.202 0L234 45.1499L312.202 90.2998L390.404 45.1499Z" fill="#FFDC2F"/>
<path d="M468.404 90.1499L390.202 45L312 90.1499L390.202 135.3L468.404 90.1499Z" fill="#FEE75F"/>
<path d="M546.404 135.15L468.202 90L390 135.15L468.202 180.3L546.404 135.15Z" fill="#FFDC2F"/>
<path d="M624.404 180.15L546.202 135L468 180.15L546.202 225.3L624.404 180.15Z" fill="#FEE75F"/>
<path d="M546.404 225.15L468.202 180L390 225.15L468.202 270.3L546.404 225.15Z" fill="#FFDC2F"/>
<path d="M468.404 270.15L390.202 225L312 270.15L390.202 315.3L468.404 270.15Z" fill="#FFE929"/>
<path d="M390.404 225.15L312.202 180L234 225.15L312.202 270.3L390.404 225.15Z" fill="#FFE65F"/>
<path d="M312.404 180.15L234.202 135L156 180.15L234.202 225.3L312.404 180.15Z" fill="#FFEA29"/>
<path d="M390.404 135.15L312.202 90L234 135.15L312.202 180.3L390.404 135.15Z" fill="#FFDC2F"/>
<path d="M468.404 180.15L390.202 135L312 180.15L390.202 225.3L468.404 180.15Z" fill="#FFE46B"/>
<path d="M234 405.45L312.202 450.6V360.3L234 315.15V405.45Z" fill="#FD9900"/>
<path d="M234 495.3L312.202 540.45V450.15L234 405V495.3Z" fill="#FFAA01"/>
<path d="M234 585.3L312.202 630.45V540.15L234 495V585.3Z" fill="#FFAA01"/>
<path d="M234 675.3L312.202 720.45V630.15L234 585V675.3Z" fill="#FFAA01"/>
<path d="M156 630.3L234.202 675.45V585.15L156 540V630.3Z" fill="#FD9900"/>
<path d="M156 540.3L234.202 585.45V495.15L156 450V540.3Z" fill="#FFBE1E"/>
<path d="M156 450.3L234.202 495.45V405.15L156 360V450.3Z" fill="#FFB405"/>
<path d="M78 405.3L156.202 450.45V360.15L78 315V405.3Z" fill="#FD9900"/>
<path d="M78 495.3L156.202 540.45V450.15L78 405V495.3Z" fill="#FFAA01"/>
<path d="M78 585.3L156.202 630.45V540.15L78 495V585.3Z" fill="#FFB405"/>
<path d="M0 540.3L78.2019 585.45V495.15L0 450V540.3Z" fill="#FB9902"/>
<path d="M0 450.3L78.2019 495.45V405.15L0 360V450.3Z" fill="#FFAA01"/>
<path d="M0 360.3L78.2019 405.45V315.15L0 270V360.3Z" fill="#FFBE1E"/>
<path d="M156 360.3L234.202 405.45V315.15L156 270V360.3Z" fill="#FFAA01"/>
<path d="M78 315.3L156.202 360.45V270.15L78 225V315.3Z" fill="#FFAA01"/>
<path d="M0 270.3L78.2019 315.45V225.15L0 180V270.3Z" fill="#FB9902"/>
<path d="M390.404 405.45V315.15L312.202 360.3V450.6L390.404 405.45Z" fill="#CC7401"/>
<path d="M390.202 495.3V405L312 450.15V540.45L390.202 495.3Z" fill="#E38A00"/>
<path d="M390.202 585.3V495L312 540.15V630.45L390.202 585.3Z" fill="#D27301"/>
<path d="M390.202 675.3V585L312 630.15V720.45L390.202 675.3Z" fill="#DD8300"/>
<path d="M468.202 630.3V540L390 585.15V675.45L468.202 630.3Z" fill="#C47000"/>
<path d="M546.202 585.3V495L468 540.15V630.45L546.202 585.3Z" fill="#D78101"/>
<path d="M624.202 540.3V450L546 495.15V585.45L624.202 540.3Z" fill="#CA6F00"/>
<path d="M468.202 540.3V450L390 495.15V585.45L468.202 540.3Z" fill="#D28000"/>
<path d="M546.202 495.3V405L468 450.15V540.45L546.202 495.3Z" fill="#CA6F01"/>
<path d="M624.202 450.3V360L546 405.15V495.45L624.202 450.3Z" fill="#CC7400"/>
<path d="M468.202 450.3V360L390 405.15V495.45L468.202 450.3Z" fill="#CC7400"/>
<path d="M546.202 405.3V315L468 360.15V450.45L546.202 405.3Z" fill="#DC7E01"/>
<path d="M624.202 360.3V270L546 315.15V405.45L624.202 360.3Z" fill="#E68B01"/>
<path d="M468.202 360.3V270L390 315.15V405.45L468.202 360.3Z" fill="#D18200"/>
<path d="M546.202 315.3V225L468 270.15V360.45L546.202 315.3Z" fill="#E68B01"/>
<path d="M624.202 270.3V180L546 225.15V315.45L624.202 270.3Z" fill="#CA7900"/>
</svg>
