<svg width="201" height="56" viewBox="0 0 201 56" fill="none" xmlns="http://www.w3.org/2000/svg">
<path d="M87.2328 39.9999V22.2079H80.3848V17.4399H100.001V22.2079H93.1528V39.9999H87.2328Z" fill="white"/>
<path d="M107.764 40.3519C105.95 40.3519 104.382 40.0106 103.06 39.3279C101.737 38.6453 100.713 37.6639 99.9878 36.3839C99.2624 35.1039 98.8998 33.5999 98.8998 31.8719C98.8998 30.1013 99.2624 28.5866 99.9878 27.3279C100.713 26.0693 101.737 25.0986 103.06 24.4159C104.382 23.7333 105.95 23.3919 107.764 23.3919C109.556 23.3919 111.113 23.7333 112.436 24.4159C113.758 25.0986 114.782 26.0693 115.508 27.3279C116.233 28.5866 116.596 30.1013 116.596 31.8719C116.596 33.5999 116.233 35.1039 115.508 36.3839C114.782 37.6639 113.758 38.6453 112.436 39.3279C111.113 40.0106 109.556 40.3519 107.764 40.3519ZM107.764 36.1279C108.702 36.1279 109.449 35.7973 110.004 35.1359C110.558 34.4533 110.836 33.3653 110.836 31.8719C110.836 30.3786 110.558 29.3013 110.004 28.6399C109.449 27.9573 108.702 27.6159 107.764 27.6159C106.804 27.6159 106.046 27.9573 105.492 28.6399C104.937 29.3013 104.66 30.3786 104.66 31.8719C104.66 33.3653 104.937 34.4533 105.492 35.1359C106.046 35.7973 106.804 36.1279 107.764 36.1279Z" fill="white"/>
<path d="M119.386 39.9999V28.1599C119.386 27.4346 119.364 26.6986 119.322 25.9519C119.279 25.2053 119.215 24.4693 119.13 23.7439H124.634L124.954 26.5599H124.602C125.135 25.5359 125.892 24.7573 126.874 24.2239C127.855 23.6693 128.964 23.3919 130.202 23.3919C132.1 23.3919 133.519 23.9573 134.458 25.0879C135.418 26.1973 135.898 27.9359 135.898 30.3039V39.9999H130.202V30.5599C130.202 29.5146 130.02 28.7893 129.658 28.3839C129.295 27.9573 128.772 27.7439 128.09 27.7439C127.194 27.7439 126.468 28.0426 125.914 28.6399C125.359 29.2159 125.082 29.9839 125.082 30.9439V39.9999H119.386Z" fill="white"/>
<path d="M147.547 40.3519C145.755 40.3519 144.187 40.0106 142.843 39.3279C141.499 38.6453 140.454 37.6746 139.707 36.4159C138.961 35.1359 138.587 33.6106 138.587 31.8399C138.587 30.0693 138.961 28.5546 139.707 27.2959C140.454 26.0373 141.499 25.0773 142.843 24.4159C144.187 23.7333 145.755 23.3919 147.547 23.3919C148.657 23.3919 149.745 23.5413 150.811 23.8399C151.878 24.1386 152.742 24.5653 153.403 25.1199L151.803 28.9919C151.291 28.5653 150.705 28.2453 150.043 28.0319C149.403 27.7973 148.774 27.6799 148.155 27.6799C146.982 27.6799 146.065 28.0319 145.403 28.7359C144.763 29.4399 144.443 30.4746 144.443 31.8399C144.443 33.2053 144.763 34.2506 145.403 34.9759C146.065 35.6799 146.982 36.0319 148.155 36.0319C148.753 36.0319 149.382 35.9253 150.043 35.7119C150.705 35.4773 151.291 35.1573 151.803 34.7519L153.403 38.6239C152.721 39.1573 151.846 39.5839 150.779 39.9039C149.734 40.2026 148.657 40.3519 147.547 40.3519Z" fill="white"/>
<path d="M163.576 40.3519C161.763 40.3519 160.195 40.0106 158.872 39.3279C157.55 38.6453 156.526 37.6639 155.8 36.3839C155.075 35.1039 154.712 33.5999 154.712 31.8719C154.712 30.1013 155.075 28.5866 155.8 27.3279C156.526 26.0693 157.55 25.0986 158.872 24.4159C160.195 23.7333 161.763 23.3919 163.576 23.3919C165.368 23.3919 166.926 23.7333 168.248 24.4159C169.571 25.0986 170.595 26.0693 171.32 27.3279C172.046 28.5866 172.408 30.1013 172.408 31.8719C172.408 33.5999 172.046 35.1039 171.32 36.3839C170.595 37.6639 169.571 38.6453 168.248 39.3279C166.926 40.0106 165.368 40.3519 163.576 40.3519ZM163.576 36.1279C164.515 36.1279 165.262 35.7973 165.816 35.1359C166.371 34.4533 166.648 33.3653 166.648 31.8719C166.648 30.3786 166.371 29.3013 165.816 28.6399C165.262 27.9573 164.515 27.6159 163.576 27.6159C162.616 27.6159 161.859 27.9573 161.304 28.6399C160.75 29.3013 160.472 30.3786 160.472 31.8719C160.472 33.3653 160.75 34.4533 161.304 35.1359C161.859 35.7973 162.616 36.1279 163.576 36.1279Z" fill="white"/>
<path d="M175.198 39.9999V23.7439H180.894V39.9999H175.198ZM175.07 21.4399V16.3199H181.054V21.4399H175.07Z" fill="white"/>
<path d="M184.417 39.9999V28.1599C184.417 27.4346 184.396 26.6986 184.353 25.9519C184.31 25.2053 184.246 24.4693 184.161 23.7439H189.665L189.985 26.5599H189.633C190.166 25.5359 190.924 24.7573 191.905 24.2239C192.886 23.6693 193.996 23.3919 195.233 23.3919C197.132 23.3919 198.55 23.9573 199.489 25.0879C200.449 26.1973 200.929 27.9359 200.929 30.3039V39.9999H195.233V30.5599C195.233 29.5146 195.052 28.7893 194.689 28.3839C194.326 27.9573 193.804 27.7439 193.121 27.7439C192.225 27.7439 191.5 28.0426 190.945 28.6399C190.39 29.2159 190.113 29.9839 190.113 30.9439V39.9999H184.417Z" fill="white"/>
<circle cx="28" cy="28" r="28" fill="#303757"/>
<path d="M22.3272 13.6774C22.3898 13.6493 22.4577 13.6348 22.5264 13.6348H33.4732C33.5419 13.6348 33.6098 13.6493 33.6725 13.6774L41.0459 16.9844C41.1319 17.0229 41.2048 17.0856 41.2559 17.1648L45.4587 23.6827C45.5738 23.8612 45.5599 24.0938 45.4244 24.2573L28.3748 44.8344C28.1801 45.0694 27.8196 45.0694 27.6249 44.8344L10.5753 24.2573C10.4398 24.0938 10.4259 23.8612 10.541 23.6827L14.7437 17.1648C14.7948 17.0856 14.8678 17.0229 14.9537 16.9844L22.3272 13.6774Z" fill="#C4C4C4"/>
<mask id="mask0_1449_84644" style="mask-type:alpha" maskUnits="userSpaceOnUse" x="10" y="13" width="36" height="33">
<path d="M22.3268 13.6774C22.3894 13.6493 22.4573 13.6348 22.526 13.6348H33.4728C33.5415 13.6348 33.6094 13.6493 33.6721 13.6774L41.0455 16.9844C41.1315 17.0229 41.2044 17.0856 41.2555 17.1648L45.4583 23.6827C45.5734 23.8612 45.5595 24.0938 45.424 24.2573L28.3744 44.8344C28.1797 45.0694 27.8192 45.0694 27.6245 44.8344L10.5749 24.2573C10.4394 24.0938 10.4255 23.8612 10.5406 23.6827L14.7433 17.1648C14.7944 17.0856 14.8674 17.0229 14.9533 16.9844L22.3268 13.6774Z" fill="#C4C4C4"/>
</mask>
<g mask="url(#mask0_1449_84644)">
<rect x="10.3477" y="21.3043" width="35.3043" height="23.9826" fill="#47A9F1"/>
<rect x="10.3477" y="13.6348" width="35.3043" height="9.13043" fill="#7EC7FF"/>
<path d="M28.0003 20.2087L34.696 29.0957H21.3047L28.0003 20.2087Z" fill="#75C1FF"/>
<path d="M28.0003 50.0348L34.696 29.0957H21.3047L28.0003 50.0348Z" fill="#8DCCFC"/>
<path d="M28.0004 20.2087L16.1309 18.4435L21.3048 29.0957L28.0004 20.2087Z" fill="#BFE2F7"/>
<path d="M10.3477 23.9826L16.1303 18.4435L21.3042 29.0957L10.3477 23.9826Z" fill="#87CBFF"/>
<path d="M10.3477 23.9826L16.1303 18.4435L14.852 17.0435L10.3477 23.9826Z" fill="#47A9F1"/>
<path d="M27.9996 20.2087L39.8691 18.4435L34.6952 29.0957L27.9996 20.2087Z" fill="#4BAEF7"/>
<path d="M45.6523 23.9826L39.8697 18.4435L34.6958 29.0957L45.6523 23.9826Z" fill="#6EBEFF"/>
<path d="M45.6523 23.9826L39.8697 18.4435L41.148 17.0435L45.6523 23.9826Z" fill="#389BE3"/>
</g>
</svg>
