<svg xmlns="http://www.w3.org/2000/svg" width="24" height="24" viewBox="0 0 24 24" fill="none">
<path d="M10.133 8.793L8.058 8.043C7.596 7.876 7.105 8.211 7.092 8.702L7.04 10.635C6.529 11.265 6.231 11.997 6.231 12.782C6.231 15.019 7.843 16.831 9.874 16.973C8.983 18.343 9 19.964 9 19.964V20.68C7.992 20.269 6.078 19.312 4.773 17.565C3.701 16.13 3 14.211 3 12.185C3 9.507 4.028 7.393 5.412 5.897C7.239 3.924 9.753 3 12 3C14.247 3 16.761 3.924 18.588 5.897C19.972 7.393 21 9.507 21 12.185C21 14.212 20.299 16.13 19.227 17.565C17.922 19.312 16.008 20.269 15 20.68V19.964C15 19.964 15.017 18.343 14.126 16.973C16.157 16.831 17.769 15.019 17.769 12.782C17.769 11.997 17.47 11.265 16.96 10.635L16.908 8.703C16.895 8.212 16.404 7.877 15.942 8.044L13.867 8.794C13.281 8.647 12.654 8.564 12 8.564C11.346 8.564 10.719 8.647 10.133 8.793V8.793Z" stroke="#0088CC" stroke-width="1.5" stroke-linecap="round" stroke-linejoin="round"/>
</svg>