<svg width="56" height="56" viewBox="0 0 56 56" fill="none" xmlns="http://www.w3.org/2000/svg">
<circle cx="28" cy="28" r="28" fill="#303757"/>
<path d="M22.3272 13.6774C22.3898 13.6493 22.4577 13.6348 22.5264 13.6348H33.4732C33.5419 13.6348 33.6098 13.6493 33.6725 13.6774L41.0459 16.9844C41.1319 17.0229 41.2048 17.0856 41.2559 17.1648L45.4587 23.6827C45.5738 23.8612 45.5599 24.0938 45.4244 24.2573L28.3748 44.8344C28.1801 45.0694 27.8196 45.0694 27.6249 44.8344L10.5753 24.2573C10.4398 24.0938 10.4259 23.8612 10.541 23.6827L14.7437 17.1648C14.7948 17.0856 14.8678 17.0229 14.9537 16.9844L22.3272 13.6774Z" fill="#C4C4C4"/>
<mask id="mask0_1449_84662" style="mask-type:alpha" maskUnits="userSpaceOnUse" x="10" y="13" width="36" height="33">
<path d="M22.3268 13.6774C22.3894 13.6493 22.4573 13.6348 22.526 13.6348H33.4728C33.5415 13.6348 33.6094 13.6493 33.6721 13.6774L41.0455 16.9844C41.1315 17.0229 41.2044 17.0856 41.2555 17.1648L45.4583 23.6827C45.5734 23.8612 45.5595 24.0938 45.424 24.2573L28.3744 44.8344C28.1797 45.0694 27.8192 45.0694 27.6245 44.8344L10.5749 24.2573C10.4394 24.0938 10.4255 23.8612 10.5406 23.6827L14.7433 17.1648C14.7944 17.0856 14.8674 17.0229 14.9533 16.9844L22.3268 13.6774Z" fill="#C4C4C4"/>
</mask>
<g mask="url(#mask0_1449_84662)">
<rect x="10.3477" y="21.3043" width="35.3043" height="23.9826" fill="#47A9F1"/>
<rect x="10.3477" y="13.6348" width="35.3043" height="9.13043" fill="#7EC7FF"/>
<path d="M28.0003 20.2087L34.696 29.0956H21.3047L28.0003 20.2087Z" fill="#75C1FF"/>
<path d="M28.0003 50.0348L34.696 29.0957H21.3047L28.0003 50.0348Z" fill="#8DCCFC"/>
<path d="M28.0004 20.2087L16.1309 18.4435L21.3048 29.0957L28.0004 20.2087Z" fill="#BFE2F7"/>
<path d="M10.3477 23.9826L16.1303 18.4435L21.3042 29.0957L10.3477 23.9826Z" fill="#87CBFF"/>
<path d="M10.3477 23.9826L16.1303 18.4435L14.852 17.0435L10.3477 23.9826Z" fill="#47A9F1"/>
<path d="M27.9996 20.2087L39.8691 18.4435L34.6952 29.0957L27.9996 20.2087Z" fill="#4BAEF7"/>
<path d="M45.6523 23.9826L39.8697 18.4435L34.6958 29.0957L45.6523 23.9826Z" fill="#6EBEFF"/>
<path d="M45.6523 23.9826L39.8697 18.4435L41.148 17.0435L45.6523 23.9826Z" fill="#389BE3"/>
</g>
</svg>
