<svg width="201" height="56" viewBox="0 0 201 56" fill="none" xmlns="http://www.w3.org/2000/svg">
<path d="M87.2328 40V22.208H80.3848V17.44H100.001V22.208H93.1528V40H87.2328Z" fill="#303757"/>
<path d="M107.764 40.352C105.95 40.352 104.382 40.0107 103.06 39.328C101.737 38.6453 100.713 37.664 99.9878 36.384C99.2624 35.104 98.8998 33.6 98.8998 31.872C98.8998 30.1013 99.2624 28.5867 99.9878 27.328C100.713 26.0693 101.737 25.0987 103.06 24.416C104.382 23.7333 105.95 23.392 107.764 23.392C109.556 23.392 111.113 23.7333 112.436 24.416C113.758 25.0987 114.782 26.0693 115.508 27.328C116.233 28.5867 116.596 30.1013 116.596 31.872C116.596 33.6 116.233 35.104 115.508 36.384C114.782 37.664 113.758 38.6453 112.436 39.328C111.113 40.0107 109.556 40.352 107.764 40.352ZM107.764 36.128C108.702 36.128 109.449 35.7973 110.004 35.136C110.558 34.4533 110.836 33.3653 110.836 31.872C110.836 30.3787 110.558 29.3013 110.004 28.64C109.449 27.9573 108.702 27.616 107.764 27.616C106.804 27.616 106.046 27.9573 105.492 28.64C104.937 29.3013 104.66 30.3787 104.66 31.872C104.66 33.3653 104.937 34.4533 105.492 35.136C106.046 35.7973 106.804 36.128 107.764 36.128Z" fill="#303757"/>
<path d="M119.386 40V28.16C119.386 27.4347 119.364 26.6987 119.322 25.952C119.279 25.2053 119.215 24.4693 119.13 23.744H124.634L124.954 26.56H124.602C125.135 25.536 125.892 24.7573 126.874 24.224C127.855 23.6693 128.964 23.392 130.202 23.392C132.1 23.392 133.519 23.9573 134.458 25.088C135.418 26.1973 135.898 27.936 135.898 30.304V40H130.202V30.56C130.202 29.5147 130.02 28.7893 129.658 28.384C129.295 27.9573 128.772 27.744 128.09 27.744C127.194 27.744 126.468 28.0427 125.914 28.64C125.359 29.216 125.082 29.984 125.082 30.944V40H119.386Z" fill="#303757"/>
<path d="M147.547 40.352C145.755 40.352 144.187 40.0107 142.843 39.328C141.499 38.6453 140.454 37.6747 139.707 36.416C138.961 35.136 138.587 33.6107 138.587 31.84C138.587 30.0693 138.961 28.5547 139.707 27.296C140.454 26.0373 141.499 25.0773 142.843 24.416C144.187 23.7333 145.755 23.392 147.547 23.392C148.657 23.392 149.745 23.5413 150.811 23.84C151.878 24.1387 152.742 24.5653 153.403 25.12L151.803 28.992C151.291 28.5653 150.705 28.2453 150.043 28.032C149.403 27.7973 148.774 27.68 148.155 27.68C146.982 27.68 146.065 28.032 145.403 28.736C144.763 29.44 144.443 30.4747 144.443 31.84C144.443 33.2053 144.763 34.2507 145.403 34.976C146.065 35.68 146.982 36.032 148.155 36.032C148.753 36.032 149.382 35.9253 150.043 35.712C150.705 35.4773 151.291 35.1573 151.803 34.752L153.403 38.624C152.721 39.1573 151.846 39.584 150.779 39.904C149.734 40.2027 148.657 40.352 147.547 40.352Z" fill="#303757"/>
<path d="M163.576 40.352C161.763 40.352 160.195 40.0107 158.872 39.328C157.55 38.6453 156.526 37.664 155.8 36.384C155.075 35.104 154.712 33.6 154.712 31.872C154.712 30.1013 155.075 28.5867 155.8 27.328C156.526 26.0693 157.55 25.0987 158.872 24.416C160.195 23.7333 161.763 23.392 163.576 23.392C165.368 23.392 166.926 23.7333 168.248 24.416C169.571 25.0987 170.595 26.0693 171.32 27.328C172.046 28.5867 172.408 30.1013 172.408 31.872C172.408 33.6 172.046 35.104 171.32 36.384C170.595 37.664 169.571 38.6453 168.248 39.328C166.926 40.0107 165.368 40.352 163.576 40.352ZM163.576 36.128C164.515 36.128 165.262 35.7973 165.816 35.136C166.371 34.4533 166.648 33.3653 166.648 31.872C166.648 30.3787 166.371 29.3013 165.816 28.64C165.262 27.9573 164.515 27.616 163.576 27.616C162.616 27.616 161.859 27.9573 161.304 28.64C160.75 29.3013 160.472 30.3787 160.472 31.872C160.472 33.3653 160.75 34.4533 161.304 35.136C161.859 35.7973 162.616 36.128 163.576 36.128Z" fill="#303757"/>
<path d="M175.198 40V23.744H180.894V40H175.198ZM175.07 21.44V16.32H181.054V21.44H175.07Z" fill="#303757"/>
<path d="M184.417 40V28.16C184.417 27.4347 184.396 26.6987 184.353 25.952C184.31 25.2053 184.246 24.4693 184.161 23.744H189.665L189.985 26.56H189.633C190.166 25.536 190.924 24.7573 191.905 24.224C192.886 23.6693 193.996 23.392 195.233 23.392C197.132 23.392 198.55 23.9573 199.489 25.088C200.449 26.1973 200.929 27.936 200.929 30.304V40H195.233V30.56C195.233 29.5147 195.052 28.7893 194.689 28.384C194.326 27.9573 193.804 27.744 193.121 27.744C192.225 27.744 191.5 28.0427 190.945 28.64C190.39 29.216 190.113 29.984 190.113 30.944V40H184.417Z" fill="#303757"/>
<circle cx="28" cy="28" r="28" fill="#303757"/>
<path d="M22.3272 13.6774C22.3898 13.6493 22.4577 13.6348 22.5264 13.6348H33.4732C33.5419 13.6348 33.6098 13.6493 33.6725 13.6774L41.0459 16.9844C41.1319 17.0229 41.2048 17.0856 41.2559 17.1648L45.4587 23.6827C45.5738 23.8612 45.5599 24.0938 45.4244 24.2573L28.3748 44.8344C28.1801 45.0694 27.8196 45.0694 27.6249 44.8344L10.5753 24.2573C10.4398 24.0938 10.4259 23.8612 10.541 23.6827L14.7437 17.1648C14.7948 17.0856 14.8678 17.0229 14.9537 16.9844L22.3272 13.6774Z" fill="#C4C4C4"/>
<mask id="mask0_1449_84580" style="mask-type:alpha" maskUnits="userSpaceOnUse" x="10" y="13" width="36" height="33">
<path d="M22.3268 13.6774C22.3894 13.6493 22.4573 13.6348 22.526 13.6348H33.4728C33.5415 13.6348 33.6094 13.6493 33.6721 13.6774L41.0455 16.9844C41.1315 17.0229 41.2044 17.0856 41.2555 17.1648L45.4583 23.6827C45.5734 23.8612 45.5595 24.0938 45.424 24.2573L28.3744 44.8344C28.1797 45.0694 27.8192 45.0694 27.6245 44.8344L10.5749 24.2573C10.4394 24.0938 10.4255 23.8612 10.5406 23.6827L14.7433 17.1648C14.7944 17.0856 14.8674 17.0229 14.9533 16.9844L22.3268 13.6774Z" fill="#C4C4C4"/>
</mask>
<g mask="url(#mask0_1449_84580)">
<rect x="10.3477" y="21.3043" width="35.3043" height="23.9826" fill="#47A9F1"/>
<rect x="10.3477" y="13.6348" width="35.3043" height="9.13043" fill="#7EC7FF"/>
<path d="M28.0003 20.2087L34.696 29.0956H21.3047L28.0003 20.2087Z" fill="#75C1FF"/>
<path d="M28.0003 50.0348L34.696 29.0957H21.3047L28.0003 50.0348Z" fill="#8DCCFC"/>
<path d="M28.0004 20.2087L16.1309 18.4435L21.3048 29.0957L28.0004 20.2087Z" fill="#BFE2F7"/>
<path d="M10.3477 23.9826L16.1303 18.4435L21.3042 29.0957L10.3477 23.9826Z" fill="#87CBFF"/>
<path d="M10.3477 23.9826L16.1303 18.4435L14.852 17.0435L10.3477 23.9826Z" fill="#47A9F1"/>
<path d="M27.9996 20.2087L39.8691 18.4435L34.6952 29.0957L27.9996 20.2087Z" fill="#4BAEF7"/>
<path d="M45.6523 23.9826L39.8697 18.4435L34.6958 29.0957L45.6523 23.9826Z" fill="#6EBEFF"/>
<path d="M45.6523 23.9826L39.8697 18.4435L41.148 17.0435L45.6523 23.9826Z" fill="#389BE3"/>
</g>
</svg>
